<?xml version="1.0" encoding="UTF-8" standalone="no"?>
<!-- Created with Inkscape (http://www.inkscape.org/) -->

<svg
   width="210mm"
   height="297mm"
   viewBox="0 0 210 297"
   version="1.1"
   id="svg1"
   inkscape:version="1.4.2 (ebf0e940d0, 2025-05-08)"
   sodipodi:docname="tokens.svg"
   xmlns:inkscape="http://www.inkscape.org/namespaces/inkscape"
   xmlns:sodipodi="http://sodipodi.sourceforge.net/DTD/sodipodi-0.dtd"
   xmlns="http://www.w3.org/2000/svg"
   xmlns:svg="http://www.w3.org/2000/svg">
  <sodipodi:namedview
     id="namedview1"
     pagecolor="#ffffff"
     bordercolor="#000000"
     borderopacity="0.25"
     inkscape:showpageshadow="2"
     inkscape:pageopacity="0.0"
     inkscape:pagecheckerboard="0"
     inkscape:deskcolor="#d1d1d1"
     inkscape:document-units="mm"
     inkscape:zoom="0.79086613"
     inkscape:cx="423.58622"
     inkscape:cy="86.6139"
     inkscape:window-width="1280"
     inkscape:window-height="800"
     inkscape:window-x="0"
     inkscape:window-y="0"
     inkscape:window-maximized="0"
     inkscape:current-layer="layer3" />
  <defs
     id="defs1" />
  <g
     inkscape:label="Donor"
     inkscape:groupmode="layer"
     id="layer1"
     style="opacity:1"
     sodipodi:insensitive="true">
    <circle
       style="fill:none;stroke:#000000;stroke-width:1;stroke-dasharray:none"
       id="path1"
       cx="25.181965"
       cy="30.170979"
       r="12.249332" />
    <path
       style="fill:none;stroke:#000000;stroke-width:1;stroke-linecap:round;stroke-dasharray:none"
       d="m 19.927525,30.089242 c 0.202746,0.119023 0.301715,0.433686 0.461896,0.593868 0.03478,0.03478 0.09719,0.03121 0.131971,0.06598 0.06955,0.06956 0.07295,0.185251 0.13197,0.26394 0.162107,0.216144 0.403232,0.403233 0.593867,0.593868 0.19137,0.191371 0.431769,0.377738 0.593866,0.593866 0.02951,0.03935 0.03121,0.09719 0.06599,0.131971 0.18203,0.182031 0.406895,0.34091 0.593867,0.527881 0.16961,0.169611 0.384162,0.336256 0.527881,0.527883 0.144519,0.192691 -0.03294,0.09077 0.197956,0.263941 0.209811,0.157358 0.382863,0.369628 0.593867,0.52788 0.117718,0.08829 0.29328,0.161309 0.395911,0.263941 0.337209,0.337209 -0.276675,-0.09203 0.197955,0.26394 0.117719,0.08829 0.29328,0.161311 0.395911,0.263941 0.09146,0.09146 0.131577,0.263744 0.263941,0.329927 0.183444,0.09172 0.254636,0.193302 0.395911,0.263941 0.06696,0.03348 0.316671,0.05273 0.329926,0.06598 0.01555,0.01556 -0.01555,0.05043 0,0.06598 0.01628,0.01627 0.379632,0.01627 0.395911,0 0.01555,-0.01556 -0.01555,-0.05043 0,-0.06598 0.03111,-0.0311 0.100865,0.03111 0.131971,0 0.01555,-0.01556 -0.01555,-0.05043 0,-0.06598 0.05274,-0.05274 0.201643,-0.07336 0.263939,-0.197956 0.0098,-0.01968 -0.01556,-0.05043 0,-0.06598 0.01556,-0.01556 0.05043,0.01556 0.06599,0 0.0311,-0.03111 -0.03111,-0.100864 0,-0.131971 0.01556,-0.01556 0.05043,0.01556 0.06598,0 0.03111,-0.0311 -0.01969,-0.09263 0,-0.131969 0.01392,-0.02782 0.05208,-0.03816 0.06598,-0.06599 0.05466,-0.109329 0.01807,-0.593866 0.131971,-0.593866"
       id="path2" />
    <path
       style="fill:none;stroke:#000000;stroke-width:1;stroke-linecap:round;stroke-dasharray:none"
       d="m 23.358754,30.023257 c 0.254862,0.399918 0.55636,0.760011 0.857808,1.121749 0.226924,0.272309 0.323953,0.638291 0.527881,0.923793 0.05424,0.07594 0.143716,0.12202 0.197956,0.197956 0.114347,0.160086 0.166335,0.357071 0.26394,0.52788 0.22135,0.387364 0.511229,0.785035 0.791823,1.121749 0.18868,0.226415 0.319017,0.516972 0.527881,0.725837 0.03478,0.03478 0.09262,0.03648 0.131971,0.06598 0.09954,0.07465 0.164402,0.189288 0.26394,0.263941 0.324321,0.243242 0.720112,0.558011 1.055762,0.725836 0.106704,0.05335 0.252323,-0.02718 0.329927,-0.06598 0.03935,-0.01969 0.09024,0.01392 0.131969,0 0.487008,-0.162335 0.659853,-0.641421 0.659853,-1.121749"
       id="path4" />
    <path
       style="fill:none;stroke:#000000;stroke-width:1;stroke-linecap:round;stroke-dasharray:none"
       d="m 25.47028,28.637568 c 0.44018,2.070508 1.906882,4.415658 3.5632,5.740712 0.230217,0.184172 0.429295,0.409422 0.659853,0.593866 0.100147,0.08012 0.239236,0.107267 0.329924,0.197956 0.09143,0.09143 0.134078,0.199009 0.263941,0.26394 0.03935,0.01969 0.09262,-0.01966 0.131971,0 0.02782,0.01392 0.03488,0.06599 0.06599,0.06599 0.03111,0 0.03816,-0.05207 0.06598,-0.06599 0.09102,-0.04551 0.05902,0.07991 0.131972,-0.06598 0.113662,-0.227322 0.197956,-0.853118 0.197956,-1.121749 0,-0.298622 -0.0092,-0.573921 -0.06599,-0.857806 -0.03042,-0.152077 -0.13974,-0.316351 -0.197956,-0.461896 -0.105833,-0.264583 -0.184089,-0.548762 -0.329927,-0.791824 -0.368245,-0.613743 0.132249,0.462452 -0.263941,-0.329925 -0.0311,-0.06221 -0.0302,-0.138313 -0.06598,-0.197956 -0.162153,-0.270256 -0.484659,-0.463047 -0.659852,-0.725836 -0.159793,-0.239689 0.01931,-0.04666 -0.131972,-0.197956"
       id="path5" />
    <path
       style="fill:none;stroke:#000000;stroke-width:1;stroke-linecap:round;stroke-dasharray:none"
       d="m 28.967496,27.053923 c 0.08798,0.04399 0.219951,0.219951 0.26394,0.131972 0.04399,-0.08798 -0.340751,-0.193419 -0.26394,-0.131972 0.185777,0.148625 0.401457,0.255979 0.593865,0.395912 0.405585,0.294971 1.056254,1.030155 1.319705,1.451674 0.05213,0.08341 0.07295,0.18525 0.131968,0.26394 0.130646,0.174194 0.335339,0.284716 0.461897,0.461896 0.336449,0.471028 0.544732,0.974347 0.725837,1.517661 0.155667,0.467 0.392525,0.99147 -0.131969,1.253718 -0.133194,0.06659 -0.2432,0.159779 -0.395912,0.197955 -0.135051,0.03376 -0.144166,-0.01807 -0.263941,-0.06598 -0.490418,-0.196167 -1.147288,-0.619408 -1.517658,-0.989777 -0.05608,-0.05608 -0.07005,-0.148415 -0.131971,-0.197956 -0.05431,-0.04345 -0.138314,-0.0302 -0.197956,-0.06599 -0.124288,-0.07457 -0.239464,-0.263941 -0.395912,-0.263941"
       id="path6" />
    <path
       style="fill:none;stroke:#000000;stroke-width:1;stroke-linecap:round;stroke-dasharray:none"
       d="m 24.612473,24.876414 c 0.263642,0.04122 0.530728,0.01377 0.791822,0.06599 0.116147,0.02323 0.213779,0.108741 0.329926,0.13197 0.0647,0.01294 0.133252,-0.01294 0.197956,0 0.175498,0.0351 0.344576,0.167405 0.527881,0.197956 0.06509,0.01085 0.133252,-0.01294 0.197956,0 0.219451,0.04389 0.446209,0.192726 0.659852,0.26394 0.322557,0.10752 0.662729,0.198531 0.989777,0.263941 0.09553,0.01911 0.234392,0.112864 0.329925,0.131971 0.12174,0.02435 0.819082,0.05236 0.923793,0 0.174982,-0.08749 0.351525,-0.175763 0.527881,-0.263941 0.0035,-0.0018 0.276701,-0.342685 0.329927,-0.395911"
       id="path7" />
    <path
       style="fill:none;stroke:#000000;stroke-width:1;stroke-linecap:round;stroke-dasharray:none"
       d="m 26.130132,23.622695 c 0.109975,0.04399 0.285936,0.241946 0.329926,0.13197 0.04399,-0.109975 -0.442295,-0.169426 -0.329926,-0.13197 0.178282,0.05943 0.347881,0.143956 0.527882,0.197956 0.139859,0.04196 0.319453,0.03037 0.461896,0.06598 0.163635,0.04091 0.288883,0.163353 0.461897,0.197955 0.352517,0.0705 -0.148506,-0.125387 0.329925,0.06599 0.337753,0.135101 0.652441,0.326961 0.989777,0.461896 0.164928,0.06597 0.301326,0.09183 0.461896,0.13197 0.183608,0.0459 0.301167,0.27635 0.461896,0.329926 0.04173,0.01391 0.09024,-0.01391 0.131972,0 0.104074,0.03469 0.250669,0.250669 0.329925,0.329926"
       id="path8" />
    <path
       style="fill:none;stroke:#000000;stroke-width:1;stroke-linecap:round;stroke-dasharray:none"
       d="m 18.409866,25.866191 c -0.170565,0.723389 0.01146,1.43825 0.26394,2.111525 0.148864,0.39697 0.255903,0.781775 0.527882,1.121749 0.135189,0.168986 0.326707,0.292909 0.461896,0.461896 0.04954,0.06193 0.07589,0.14188 0.131971,0.197956 0.247544,0.247544 0.121648,0.04175 0.329925,0.197956 0.115288,0.08647 0.58198,0.395912 0.725837,0.395912"
       id="path9" />
    <path
       style="fill:none;stroke:#000000;stroke-width:1;stroke-linecap:round;stroke-dasharray:none"
       d="m 19.069718,26.328088 c 0.08798,-0.06599 0.329925,-0.109976 0.26394,-0.197956 -0.06599,-0.08798 -0.349817,0.266657 -0.26394,0.197956 0.205735,-0.164588 0.918781,-0.746162 1.253718,-0.857808 0.04173,-0.01391 0.08929,0.01067 0.13197,0 0.318639,-0.07966 -0.0033,-0.03136 0.197956,-0.13197 0.210671,-0.105336 0.44772,-0.157875 0.659852,-0.263941 0.99924,-0.49962 1.966022,-1.104264 3.101303,-0.725837 0.598794,0.199598 0.756839,1.086765 1.121748,1.451674"
       id="path10" />
    <path
       style="fill:none;stroke:#000000;stroke-width:1;stroke-linecap:round;stroke-dasharray:none"
       d="m 29.120094,30.798016 c -0.0676,-0.145503 -0.07239,-0.352148 -0.16238,-0.487138 -0.0581,-0.08715 -0.145791,-0.145791 -0.216506,-0.216506 -0.02299,-0.02299 -0.03113,-0.05819 -0.05413,-0.08119 -0.02299,-0.02299 -0.05819,-0.03113 -0.08119,-0.05413 -0.02299,-0.02299 -0.03381,-0.05579 -0.05413,-0.08119 -0.06337,-0.07921 -0.153138,-0.137297 -0.216506,-0.216508 -0.02032,-0.0254 -0.03113,-0.05819 -0.05413,-0.08119 -0.140663,-0.140665 -0.02819,0.02567 -0.135318,-0.108254 -0.02032,-0.0254 -0.03113,-0.05819 -0.05413,-0.08119 -0.100446,-0.100449 -0.236823,-0.180449 -0.32476,-0.297696 -0.131927,-0.175906 -0.190424,-0.394875 -0.270632,-0.595392 -0.01497,-0.03746 -0.04434,-0.06911 -0.05413,-0.108254 -0.0044,-0.01752 0.0057,-0.03701 0,-0.05413 -0.004,-0.01209 -0.02302,-0.01495 -0.02706,-0.02706 -0.0057,-0.01712 0.0057,-0.03701 0,-0.05413 -0.0093,-0.02803 -0.0407,-0.05434 -0.05413,-0.08119 -0.0081,-0.01614 0.01275,-0.04137 0,-0.05413 -0.03608,-0.03608 -0.02706,0.04511 -0.02706,-0.02706"
       id="path12" />
  </g>
  <g
     inkscape:groupmode="layer"
     id="layer3"
     inkscape:label="Admirerer"
     sodipodi:insensitive="true">
    <circle
       style="fill:none;stroke:#000000;stroke-width:1;stroke-dasharray:none"
       id="path1-9"
       cx="56.670166"
       cy="31.799332"
       r="12.249332" />
    <g
       id="g13"
       transform="translate(0,-0.52916683)">
      <path
         style="fill:none;stroke:#000000;stroke-width:1.45389;stroke-linecap:square;stroke-dasharray:none"
         d="m 47.613113,32.26087 c 10.634732,-10.63473 18.114106,0 18.114106,0"
         id="path13" />
      <path
         style="fill:none;stroke:#000000;stroke-width:1.45389;stroke-linecap:square;stroke-dasharray:none"
         d="m 47.613113,32.396127 c 10.634732,10.63473 18.114106,0 18.114106,0"
         id="path13-9" />
    </g>
    <circle
       style="fill:none;stroke:#000000;stroke-width:1;stroke-linecap:square;stroke-dasharray:none"
       id="path14"
       cx="56.870804"
       cy="31.751484"
       r="3.8963962" />
  </g>
</svg>
