999
"DXF R12 Output" (www.mydxf.blogspot.com)
 0 
SECTION
 2 
HEADER
 9 
$ACADVER
 1 
AC1009
 9 
$EXTMIN
 10 
 0 
 20 
 0 
 9 
$EXTMAX
 10 
 8.5 
 20 
 11 
 0 
ENDSEC
 0 
SECTION
 2 
ENTITIES
0
POLYLINE
8
Donor
62
7
70
0
10
0.000000
20
0.000000
66
1
0
VERTEX
8
Donor
10
25.181965
20
279.078353
70
0
0
VERTEX
8
Donor
10
23.351003
20
278.941175
70
0
0
VERTEX
8
Donor
10
21.590184
20
278.540512
70
0
0
VERTEX
8
Donor
10
19.923914
20
277.892674
70
0
0
VERTEX
8
Donor
10
18.376601
20
277.013968
70
0
0
VERTEX
8
Donor
10
16.972651
20
275.920703
70
0
0
VERTEX
8
Donor
10
15.736473
20
274.629188
70
0
0
VERTEX
8
Donor
10
14.692473
20
273.155730
70
0
0
VERTEX
8
Donor
10
13.865058
20
271.516637
70
0
0
VERTEX
8
Donor
10
13.291115
20
269.772554
70
0
0
VERTEX
8
Donor
10
12.987443
20
267.992442
70
0
0
VERTEX
8
Donor
10
12.948313
20
266.205092
70
0
0
VERTEX
8
Donor
10
13.168000
20
264.439295
70
0
0
VERTEX
8
Donor
10
13.640777
20
262.723840
70
0
0
VERTEX
8
Donor
10
14.360917
20
261.087519
70
0
0
VERTEX
8
Donor
10
15.322693
20
259.559120
70
0
0
VERTEX
8
Donor
10
16.520379
20
258.167435
70
0
0
VERTEX
8
Donor
10
17.912064
20
256.969749
70
0
0
VERTEX
8
Donor
10
19.440463
20
256.007973
70
0
0
VERTEX
8
Donor
10
21.076784
20
255.287833
70
0
0
VERTEX
8
Donor
10
22.792239
20
254.815056
70
0
0
VERTEX
8
Donor
10
24.558036
20
254.595369
70
0
0
VERTEX
8
Donor
10
26.345386
20
254.634499
70
0
0
VERTEX
8
Donor
10
28.125498
20
254.938171
70
0
0
VERTEX
8
Donor
10
29.869581
20
255.512114
70
0
0
VERTEX
8
Donor
10
31.508674
20
256.339529
70
0
0
VERTEX
8
Donor
10
32.982132
20
257.383529
70
0
0
VERTEX
8
Donor
10
34.273647
20
258.619707
70
0
0
VERTEX
8
Donor
10
35.366912
20
260.023657
70
0
0
VERTEX
8
Donor
10
36.245618
20
261.570970
70
0
0
VERTEX
8
Donor
10
36.893456
20
263.237240
70
0
0
VERTEX
8
Donor
10
37.294119
20
264.998059
70
0
0
VERTEX
8
Donor
10
37.431297
20
266.829021
70
0
0
VERTEX
8
Donor
10
37.193755
20
269.229906
70
0
0
VERTEX
8
Donor
10
36.498872
20
271.516637
70
0
0
VERTEX
8
Donor
10
35.373265
20
273.624957
70
0
0
VERTEX
8
Donor
10
33.843551
20
275.490607
70
0
0
VERTEX
8
Donor
10
31.977901
20
277.020321
70
0
0
VERTEX
8
Donor
10
29.869581
20
278.145928
70
0
0
VERTEX
8
Donor
10
27.582850
20
278.840811
70
0
0
VERTEX
8
Donor
10
25.181965
20
279.078353
70
0
0
VERTEX
8
Donor
10
25.181965
20
279.078353
70
0
0
SEQEND
8
Donor
0
POLYLINE
8
Donor
62
7
70
0
10
0.000000
20
0.000000
66
1
0
VERTEX
8
Donor
10
19.927525
20
266.910758
70
0
0
VERTEX
8
Donor
10
20.389421
20
266.316890
70
0
0
VERTEX
8
Donor
10
20.521392
20
266.250910
70
0
0
VERTEX
8
Donor
10
20.653362
20
265.986970
70
0
0
VERTEX
8
Donor
10
21.247229
20
265.393102
70
0
0
VERTEX
8
Donor
10
21.841095
20
264.799236
70
0
0
VERTEX
8
Donor
10
21.907085
20
264.667265
70
0
0
VERTEX
8
Donor
10
22.500952
20
264.139384
70
0
0
VERTEX
8
Donor
10
23.028833
20
263.611501
70
0
0
VERTEX
8
Donor
10
23.226789
20
263.347560
70
0
0
VERTEX
8
Donor
10
23.820656
20
262.819680
70
0
0
VERTEX
8
Donor
10
24.216567
20
262.555739
70
0
0
VERTEX
8
Donor
10
24.323013
20
262.422297
70
0
0
VERTEX
8
Donor
10
24.264012
20
262.430804
70
0
0
VERTEX
8
Donor
10
24.414522
20
262.291799
70
0
0
VERTEX
8
Donor
10
24.810433
20
262.027858
70
0
0
VERTEX
8
Donor
10
25.074374
20
261.697931
70
0
0
VERTEX
8
Donor
10
25.470285
20
261.433990
70
0
0
VERTEX
8
Donor
10
25.800211
20
261.368010
70
0
0
VERTEX
8
Donor
10
25.800211
20
261.302030
70
0
0
VERTEX
8
Donor
10
26.196122
20
261.302030
70
0
0
VERTEX
8
Donor
10
26.196122
20
261.368010
70
0
0
VERTEX
8
Donor
10
26.328093
20
261.368010
70
0
0
VERTEX
8
Donor
10
26.328093
20
261.433990
70
0
0
VERTEX
8
Donor
10
26.592032
20
261.631946
70
0
0
VERTEX
8
Donor
10
26.592032
20
261.697926
70
0
0
VERTEX
8
Donor
10
26.658022
20
261.697926
70
0
0
VERTEX
8
Donor
10
26.658022
20
261.829897
70
0
0
VERTEX
8
Donor
10
26.724002
20
261.829897
70
0
0
VERTEX
8
Donor
10
26.724002
20
261.961866
70
0
0
VERTEX
8
Donor
10
26.789982
20
262.027856
70
0
0
VERTEX
8
Donor
10
26.833752
20
262.365787
70
0
0
VERTEX
8
Donor
10
26.921953
20
262.621722
70
0
0
SEQEND
8
Donor
0
POLYLINE
8
Donor
62
7
70
0
10
0.000000
20
0.000000
66
1
0
VERTEX
8
Donor
10
23.358754
20
266.976743
70
0
0
VERTEX
8
Donor
10
24.216562
20
265.854994
70
0
0
VERTEX
8
Donor
10
24.744443
20
264.931201
70
0
0
VERTEX
8
Donor
10
24.942399
20
264.733245
70
0
0
VERTEX
8
Donor
10
25.206339
20
264.205365
70
0
0
VERTEX
8
Donor
10
25.998162
20
263.083616
70
0
0
VERTEX
8
Donor
10
26.526043
20
262.357779
70
0
0
VERTEX
8
Donor
10
26.658014
20
262.291799
70
0
0
VERTEX
8
Donor
10
26.921954
20
262.027858
70
0
0
VERTEX
8
Donor
10
27.977716
20
261.302022
70
0
0
VERTEX
8
Donor
10
28.307643
20
261.368002
70
0
0
VERTEX
8
Donor
10
28.439612
20
261.368002
70
0
0
VERTEX
8
Donor
10
28.952167
20
261.809629
70
0
0
VERTEX
8
Donor
10
29.099465
20
262.489751
70
0
0
SEQEND
8
Donor
0
POLYLINE
8
Donor
62
7
70
0
10
0.000000
20
0.000000
66
1
0
VERTEX
8
Donor
10
25.470280
20
268.362432
70
0
0
VERTEX
8
Donor
10
25.979811
20
266.778286
70
0
0
VERTEX
8
Donor
10
26.795828
20
265.212531
70
0
0
VERTEX
8
Donor
10
27.839871
20
263.786548
70
0
0
VERTEX
8
Donor
10
29.033480
20
262.621720
70
0
0
VERTEX
8
Donor
10
29.693333
20
262.027854
70
0
0
VERTEX
8
Donor
10
30.023257
20
261.829898
70
0
0
VERTEX
8
Donor
10
30.287198
20
261.565958
70
0
0
VERTEX
8
Donor
10
30.419169
20
261.565958
70
0
0
VERTEX
8
Donor
10
30.485159
20
261.499968
70
0
0
VERTEX
8
Donor
10
30.551139
20
261.565958
70
0
0
VERTEX
8
Donor
10
30.683111
20
261.631938
70
0
0
VERTEX
8
Donor
10
30.881067
20
262.753687
70
0
0
VERTEX
8
Donor
10
30.815077
20
263.611493
70
0
0
VERTEX
8
Donor
10
30.617121
20
264.073389
70
0
0
VERTEX
8
Donor
10
30.287194
20
264.865213
70
0
0
VERTEX
8
Donor
10
30.146314
20
265.064259
70
0
0
VERTEX
8
Donor
10
30.165703
20
264.963188
70
0
0
VERTEX
8
Donor
10
30.179852
20
264.895611
70
0
0
VERTEX
8
Donor
10
30.023253
20
265.195138
70
0
0
VERTEX
8
Donor
10
29.957273
20
265.393094
70
0
0
VERTEX
8
Donor
10
29.297421
20
266.118930
70
0
0
VERTEX
8
Donor
10
29.165449
20
266.316886
70
0
0
SEQEND
8
Donor
0
POLYLINE
8
Donor
62
7
70
0
10
0.000000
20
0.000000
66
1
0
VERTEX
8
Donor
10
28.967496
20
269.946077
70
0
0
VERTEX
8
Donor
10
29.231436
20
269.814105
70
0
0
VERTEX
8
Donor
10
28.967496
20
269.946077
70
0
0
VERTEX
8
Donor
10
29.561361
20
269.550165
70
0
0
VERTEX
8
Donor
10
30.274514
20
268.871783
70
0
0
VERTEX
8
Donor
10
30.881066
20
268.098491
70
0
0
VERTEX
8
Donor
10
31.013034
20
267.834551
70
0
0
VERTEX
8
Donor
10
31.474931
20
267.372655
70
0
0
VERTEX
8
Donor
10
31.896104
20
266.640932
70
0
0
VERTEX
8
Donor
10
32.200768
20
265.854994
70
0
0
VERTEX
8
Donor
10
32.389844
20
265.151353
70
0
0
VERTEX
8
Donor
10
32.332581
20
264.842133
70
0
0
VERTEX
8
Donor
10
32.068799
20
264.601276
70
0
0
VERTEX
8
Donor
10
31.672887
20
264.403321
70
0
0
VERTEX
8
Donor
10
31.408946
20
264.469301
70
0
0
VERTEX
8
Donor
10
30.605099
20
264.898864
70
0
0
VERTEX
8
Donor
10
29.891288
20
265.459078
70
0
0
VERTEX
8
Donor
10
29.759317
20
265.657034
70
0
0
VERTEX
8
Donor
10
29.561361
20
265.723024
70
0
0
VERTEX
8
Donor
10
29.165449
20
265.986965
70
0
0
SEQEND
8
Donor
0
POLYLINE
8
Donor
62
7
70
0
10
0.000000
20
0.000000
66
1
0
VERTEX
8
Donor
10
24.612473
20
272.123586
70
0
0
VERTEX
8
Donor
10
25.404295
20
272.057596
70
0
0
VERTEX
8
Donor
10
25.734221
20
271.925626
70
0
0
VERTEX
8
Donor
10
25.932177
20
271.925626
70
0
0
VERTEX
8
Donor
10
26.460058
20
271.727670
70
0
0
VERTEX
8
Donor
10
26.658014
20
271.727670
70
0
0
VERTEX
8
Donor
10
27.317866
20
271.463730
70
0
0
VERTEX
8
Donor
10
28.307643
20
271.199789
70
0
0
VERTEX
8
Donor
10
28.637568
20
271.067818
70
0
0
VERTEX
8
Donor
10
29.561361
20
271.067818
70
0
0
VERTEX
8
Donor
10
30.089242
20
271.331759
70
0
0
VERTEX
8
Donor
10
30.419169
20
271.727670
70
0
0
SEQEND
8
Donor
0
POLYLINE
8
Donor
62
7
70
0
10
0.000000
20
0.000000
66
1
0
VERTEX
8
Donor
10
26.130132
20
273.377305
70
0
0
VERTEX
8
Donor
10
26.319839
20
273.253583
70
0
0
VERTEX
8
Donor
10
26.460058
20
273.245335
70
0
0
VERTEX
8
Donor
10
26.269453
20
273.366607
70
0
0
VERTEX
8
Donor
10
26.130132
20
273.377305
70
0
0
VERTEX
8
Donor
10
26.658014
20
273.179349
70
0
0
VERTEX
8
Donor
10
27.119910
20
273.113369
70
0
0
VERTEX
8
Donor
10
27.581807
20
272.915414
70
0
0
VERTEX
8
Donor
10
27.699552
20
272.927748
70
0
0
VERTEX
8
Donor
10
27.911732
20
272.849424
70
0
0
VERTEX
8
Donor
10
28.901509
20
272.387528
70
0
0
VERTEX
8
Donor
10
29.363405
20
272.255558
70
0
0
VERTEX
8
Donor
10
29.825301
20
271.925632
70
0
0
VERTEX
8
Donor
10
29.957273
20
271.925632
70
0
0
VERTEX
8
Donor
10
30.287198
20
271.595706
70
0
0
SEQEND
8
Donor
0
POLYLINE
8
Donor
62
7
70
0
10
0.000000
20
0.000000
66
1
0
VERTEX
8
Donor
10
18.409866
20
271.133809
70
0
0
VERTEX
8
Donor
10
18.383194
20
270.059254
70
0
0
VERTEX
8
Donor
10
18.673806
20
269.022284
70
0
0
VERTEX
8
Donor
10
18.891579
20
268.440036
70
0
0
VERTEX
8
Donor
10
19.201688
20
267.900535
70
0
0
VERTEX
8
Donor
10
19.663584
20
267.438639
70
0
0
VERTEX
8
Donor
10
19.795555
20
267.240683
70
0
0
VERTEX
8
Donor
10
20.125480
20
267.042727
70
0
0
VERTEX
8
Donor
10
20.851317
20
266.646815
70
0
0
SEQEND
8
Donor
0
POLYLINE
8
Donor
62
7
70
0
10
0.000000
20
0.000000
66
1
0
VERTEX
8
Donor
10
19.069718
20
270.671912
70
0
0
VERTEX
8
Donor
10
19.259425
20
270.762644
70
0
0
VERTEX
8
Donor
10
19.333658
20
270.869868
70
0
0
VERTEX
8
Donor
10
19.144738
20
270.778120
70
0
0
VERTEX
8
Donor
10
19.069718
20
270.671912
70
0
0
VERTEX
8
Donor
10
20.323436
20
271.529720
70
0
0
VERTEX
8
Donor
10
20.455406
20
271.529720
70
0
0
VERTEX
8
Donor
10
20.598403
20
271.587849
70
0
0
VERTEX
8
Donor
10
20.653362
20
271.661690
70
0
0
VERTEX
8
Donor
10
21.313214
20
271.925631
70
0
0
VERTEX
8
Donor
10
22.812850
20
272.617817
70
0
0
VERTEX
8
Donor
10
23.591510
20
272.767964
70
0
0
VERTEX
8
Donor
10
24.414517
20
272.651468
70
0
0
VERTEX
8
Donor
10
24.791091
20
272.391754
70
0
0
VERTEX
8
Donor
10
25.063098
20
271.987623
70
0
0
VERTEX
8
Donor
10
25.536265
20
271.199794
70
0
0
SEQEND
8
Donor
0
POLYLINE
8
Donor
62
7
70
0
10
0.000000
20
0.000000
66
1
0
VERTEX
8
Donor
10
29.120094
20
266.201984
70
0
0
VERTEX
8
Donor
10
28.957714
20
266.689122
70
0
0
VERTEX
8
Donor
10
28.741208
20
266.905628
70
0
0
VERTEX
8
Donor
10
28.687078
20
266.986818
70
0
0
VERTEX
8
Donor
10
28.605888
20
267.040948
70
0
0
VERTEX
8
Donor
10
28.551758
20
267.122138
70
0
0
VERTEX
8
Donor
10
28.335252
20
267.338646
70
0
0
VERTEX
8
Donor
10
28.281122
20
267.419836
70
0
0
VERTEX
8
Donor
10
28.145804
20
267.528090
70
0
0
VERTEX
8
Donor
10
28.091674
20
267.609280
70
0
0
VERTEX
8
Donor
10
27.766914
20
267.906976
70
0
0
VERTEX
8
Donor
10
27.496282
20
268.502368
70
0
0
VERTEX
8
Donor
10
27.442152
20
268.610622
70
0
0
VERTEX
8
Donor
10
27.442152
20
268.664752
70
0
0
VERTEX
8
Donor
10
27.415092
20
268.691812
70
0
0
VERTEX
8
Donor
10
27.415092
20
268.745942
70
0
0
VERTEX
8
Donor
10
27.360962
20
268.827132
70
0
0
VERTEX
8
Donor
10
27.360962
20
268.881262
70
0
0
VERTEX
8
Donor
10
27.333902
20
268.908322
70
0
0
SEQEND
8
Donor
0
POLYLINE
8
Admirerer
62
7
70
0
10
0.000000
20
0.000000
66
1
0
VERTEX
8
Admirerer
10
56.670166
20
277.450000
70
0
0
VERTEX
8
Admirerer
10
54.839204
20
277.312822
70
0
0
VERTEX
8
Admirerer
10
53.078385
20
276.912159
70
0
0
VERTEX
8
Admirerer
10
51.412115
20
276.264321
70
0
0
VERTEX
8
Admirerer
10
49.864802
20
275.385615
70
0
0
VERTEX
8
Admirerer
10
48.460852
20
274.292350
70
0
0
VERTEX
8
Admirerer
10
47.224674
20
273.000835
70
0
0
VERTEX
8
Admirerer
10
46.180674
20
271.527377
70
0
0
VERTEX
8
Admirerer
10
45.353259
20
269.888284
70
0
0
VERTEX
8
Admirerer
10
44.779316
20
268.144201
70
0
0
VERTEX
8
Admirerer
10
44.475644
20
266.364089
70
0
0
VERTEX
8
Admirerer
10
44.436514
20
264.576739
70
0
0
VERTEX
8
Admirerer
10
44.656201
20
262.810942
70
0
0
VERTEX
8
Admirerer
10
45.128978
20
261.095487
70
0
0
VERTEX
8
Admirerer
10
45.849118
20
259.459166
70
0
0
VERTEX
8
Admirerer
10
46.810894
20
257.930767
70
0
0
VERTEX
8
Admirerer
10
48.008580
20
256.539082
70
0
0
VERTEX
8
Admirerer
10
49.400265
20
255.341396
70
0
0
VERTEX
8
Admirerer
10
50.928664
20
254.379620
70
0
0
VERTEX
8
Admirerer
10
52.564985
20
253.659480
70
0
0
VERTEX
8
Admirerer
10
54.280440
20
253.186703
70
0
0
VERTEX
8
Admirerer
10
56.046237
20
252.967016
70
0
0
VERTEX
8
Admirerer
10
57.833587
20
253.006146
70
0
0
VERTEX
8
Admirerer
10
59.613699
20
253.309818
70
0
0
VERTEX
8
Admirerer
10
61.357782
20
253.883761
70
0
0
VERTEX
8
Admirerer
10
62.996875
20
254.711176
70
0
0
VERTEX
8
Admirerer
10
64.470333
20
255.755176
70
0
0
VERTEX
8
Admirerer
10
65.761848
20
256.991354
70
0
0
VERTEX
8
Admirerer
10
66.855113
20
258.395304
70
0
0
VERTEX
8
Admirerer
10
67.733819
20
259.942617
70
0
0
VERTEX
8
Admirerer
10
68.381657
20
261.608887
70
0
0
VERTEX
8
Admirerer
10
68.782320
20
263.369706
70
0
0
VERTEX
8
Admirerer
10
68.919498
20
265.200668
70
0
0
VERTEX
8
Admirerer
10
68.681956
20
267.601553
70
0
0
VERTEX
8
Admirerer
10
67.987073
20
269.888284
70
0
0
VERTEX
8
Admirerer
10
66.861466
20
271.996604
70
0
0
VERTEX
8
Admirerer
10
65.331752
20
273.862254
70
0
0
VERTEX
8
Admirerer
10
63.466102
20
275.391968
70
0
0
VERTEX
8
Admirerer
10
61.357782
20
276.517575
70
0
0
VERTEX
8
Admirerer
10
59.071051
20
277.212458
70
0
0
VERTEX
8
Admirerer
10
56.670166
20
277.450000
70
0
0
VERTEX
8
Admirerer
10
56.670166
20
277.450000
70
0
0
SEQEND
8
Admirerer
0
POLYLINE
8
Layer 1
62
7
70
0
10
0.000000
20
0.000000
66
1
0
VERTEX
8
Layer 1
10
47.613113
20
265.268130
70
0
0
VERTEX
8
Layer 1
10
49.569093
20
267.020679
70
0
0
VERTEX
8
Layer 1
10
51.444785
20
268.321461
70
0
0
VERTEX
8
Layer 1
10
53.233855
20
269.217208
70
0
0
VERTEX
8
Layer 1
10
54.929970
20
269.754657
70
0
0
VERTEX
8
Layer 1
10
56.526794
20
269.980541
70
0
0
VERTEX
8
Layer 1
10
58.017996
20
269.941595
70
0
0
VERTEX
8
Layer 1
10
59.397239
20
269.684555
70
0
0
VERTEX
8
Layer 1
10
60.658190
20
269.256154
70
0
0
VERTEX
8
Layer 1
10
62.799882
20
268.072209
70
0
0
VERTEX
8
Layer 1
10
64.392399
20
266.763639
70
0
0
VERTEX
8
Layer 1
10
65.727219
20
265.268130
70
0
0
SEQEND
8
Layer 1
0
POLYLINE
8
Layer 1
62
7
70
0
10
0.000000
20
0.000000
66
1
0
VERTEX
8
Layer 1
10
47.613113
20
265.132873
70
0
0
VERTEX
8
Layer 1
10
49.569093
20
263.380324
70
0
0
VERTEX
8
Layer 1
10
51.444785
20
262.079542
70
0
0
VERTEX
8
Layer 1
10
53.233855
20
261.183795
70
0
0
VERTEX
8
Layer 1
10
54.929970
20
260.646346
70
0
0
VERTEX
8
Layer 1
10
56.526794
20
260.420462
70
0
0
VERTEX
8
Layer 1
10
58.017996
20
260.459408
70
0
0
VERTEX
8
Layer 1
10
59.397239
20
260.716448
70
0
0
VERTEX
8
Layer 1
10
60.658190
20
261.144849
70
0
0
VERTEX
8
Layer 1
10
62.799882
20
262.328794
70
0
0
VERTEX
8
Layer 1
10
64.392399
20
263.637364
70
0
0
VERTEX
8
Layer 1
10
65.727219
20
265.132873
70
0
0
SEQEND
8
Layer 1
0
POLYLINE
8
Admirerer
62
7
70
0
10
0.000000
20
0.000000
66
1
0
VERTEX
8
Admirerer
10
56.870804
20
269.144912
70
0
0
VERTEX
8
Admirerer
10
55.728293
20
268.973830
70
0
0
VERTEX
8
Admirerer
10
54.706082
20
268.488251
70
0
0
VERTEX
8
Admirerer
10
53.866283
20
267.729675
70
0
0
VERTEX
8
Admirerer
10
53.271003
20
266.739602
70
0
0
VERTEX
8
Admirerer
10
52.991842
20
265.618589
70
0
0
VERTEX
8
Admirerer
10
53.049276
20
264.488367
70
0
0
VERTEX
8
Admirerer
10
53.428731
20
263.422199
70
0
0
VERTEX
8
Admirerer
10
54.115636
20
262.493348
70
0
0
VERTEX
8
Admirerer
10
55.044487
20
261.806443
70
0
0
VERTEX
8
Admirerer
10
56.110655
20
261.426988
70
0
0
VERTEX
8
Admirerer
10
57.240877
20
261.369554
70
0
0
VERTEX
8
Admirerer
10
58.361890
20
261.648715
70
0
0
VERTEX
8
Admirerer
10
59.351963
20
262.243995
70
0
0
VERTEX
8
Admirerer
10
60.110539
20
263.083794
70
0
0
VERTEX
8
Admirerer
10
60.596118
20
264.106005
70
0
0
VERTEX
8
Admirerer
10
60.767200
20
265.248516
70
0
0
VERTEX
8
Admirerer
10
60.691640
20
266.012215
70
0
0
VERTEX
8
Admirerer
10
60.470605
20
266.739602
70
0
0
VERTEX
8
Admirerer
10
60.112560
20
267.410239
70
0
0
VERTEX
8
Admirerer
10
59.625972
20
268.003684
70
0
0
VERTEX
8
Admirerer
10
59.032527
20
268.490272
70
0
0
VERTEX
8
Admirerer
10
58.361890
20
268.848317
70
0
0
VERTEX
8
Admirerer
10
57.634503
20
269.069352
70
0
0
VERTEX
8
Admirerer
10
56.870804
20
269.144912
70
0
0
VERTEX
8
Admirerer
10
56.870804
20
269.144912
70
0
0
SEQEND
8
Admirerer
 0 
ENDSEC
 0 
EOF